<svg width="100" height="100" viewBox="0 0 100 100" fill="none" xmlns="http://www.w3.org/2000/svg">
<path d="M10.0957 75.04C10.0957 77.5747 11.6675 79.1748 14.7119 79.812L17.105 80.3076C18.5068 80.5908 18.9741 80.9023 18.9741 81.5679C18.9741 82.3184 18.2095 82.814 17.0059 82.814C15.6748 82.814 14.8677 82.3467 14.7119 81.4829H9.82666C9.99658 84.584 12.5879 86.354 16.9634 86.354C21.3672 86.354 24.1001 84.2583 24.1001 80.9023C24.1001 78.4385 22.6699 77.0791 19.3706 76.4419L16.751 75.9321C15.5474 75.6914 15.0093 75.2808 15.0093 74.6152C15.0093 73.8789 15.7739 73.355 16.8784 73.355C18.0537 73.355 18.8608 73.8789 18.96 74.7285H23.6328C23.5337 71.5708 21.1265 69.8149 16.8926 69.8149C12.6729 69.8149 10.0957 71.7974 10.0957 75.04ZM42.3667 70.2397H37.3682V79.2456C37.3682 81.1289 36.4053 82.2759 34.8335 82.2759C33.2051 82.2759 32.4263 81.313 32.4263 79.3022V70.2397H27.4136V80.4209C27.4136 84.3008 29.2544 86.3682 32.6812 86.3682C34.8618 86.3682 36.5044 85.3062 37.2266 83.437H37.4956V86H42.3667V70.2397ZM61.0723 73.3975C61.0723 71.146 60.0811 69.8716 58.3252 69.8716C56.8809 69.8716 55.9038 70.8911 55.6206 72.6753H55.0825C54.7568 70.877 53.7939 69.8716 52.3921 69.8716C50.7778 69.8716 49.7441 70.8911 49.4185 72.8452H48.8804V70.2397H44.5615V86H48.7104V75.0684C48.7104 74.3745 49.1353 73.9072 49.7441 73.9072C50.353 73.9072 50.7778 74.3745 50.7778 75.0684V86H54.856V75.0684C54.856 74.3887 55.2949 73.9072 55.8896 73.9072C56.4844 73.9072 56.9233 74.3887 56.9233 75.0684V86H61.0723V73.3975ZM66.0142 75.7905C66.0142 81.313 67.7275 86.1558 70.8711 89.54H76.0679C72.896 84.5981 71.6782 80.7891 71.6782 75.7905C71.6782 70.792 72.896 66.9546 76.0679 62.0269H70.8711C67.7275 65.397 66.0142 70.2539 66.0142 75.7905ZM89.0499 75.7905C89.0499 70.2539 87.3365 65.397 84.193 62.0269H78.9962C82.1681 66.9546 83.3858 70.792 83.3858 75.7905C83.3858 80.7891 82.1681 84.5981 78.9962 89.54H84.193C87.3365 86.1558 89.0499 81.313 89.0499 75.7905Z" fill="black"/>
<path d="M57.5977 34.5146H48.3506V34.3486L55.7549 24.4209V24.2715L48.4004 15.6387V15.4727H57.6475V11.3389H42.6895V15.3066L50.2266 24.3047V24.4707L42.6396 34.8301V38.6484H57.5977V34.5146Z" fill="black"/>
<line x1="5" y1="49" x2="95" y2="49" stroke="black" stroke-width="2"/>
</svg>
